<mxfile host="app.diagrams.net" agent="Mozilla/5.0 (Windows NT 10.0; Win64; x64) AppleWebKit/537.36 (KHTML, like Gecko) Chrome/136.0.0.0 Safari/537.36" version="27.0.9">
  <diagram name="Sequence - detectLowStockItems()" id="sequence-1">
    <mxGraphModel dx="1030" dy="566" grid="1" gridSize="10" guides="1" tooltips="1" connect="1" arrows="1" fold="1" page="1" pageScale="1" pageWidth="827" pageHeight="1169" math="0" shadow="0">
      <root>
        <mxCell id="0" />
        <mxCell id="1" parent="0" />
        <mxCell id="86hexkFTFtTpV62cVOlB-22" value="alt" style="text;html=1;align=center;verticalAlign=middle;resizable=0;points=[];autosize=1;strokeColor=none;fillColor=none;" vertex="1" parent="1">
          <mxGeometry x="245" y="455" width="40" height="30" as="geometry" />
        </mxCell>
        <mxCell id="86hexkFTFtTpV62cVOlB-11" value="" style="rounded=0;whiteSpace=wrap;html=1;" vertex="1" parent="1">
          <mxGeometry x="180" y="330" width="360" height="180" as="geometry" />
        </mxCell>
        <mxCell id="86hexkFTFtTpV62cVOlB-1" value="InventoryService" style="rounded=0;whiteSpace=wrap;html=1;" vertex="1" parent="1">
          <mxGeometry x="160" y="160" width="120" height="60" as="geometry" />
        </mxCell>
        <mxCell id="86hexkFTFtTpV62cVOlB-2" value="InventoryItem" style="rounded=0;whiteSpace=wrap;html=1;" vertex="1" parent="1">
          <mxGeometry x="430" y="160" width="120" height="60" as="geometry" />
        </mxCell>
        <mxCell id="86hexkFTFtTpV62cVOlB-3" value="" style="endArrow=none;dashed=1;html=1;dashPattern=1 3;strokeWidth=2;rounded=0;entryX=0.5;entryY=1;entryDx=0;entryDy=0;" edge="1" parent="1" target="86hexkFTFtTpV62cVOlB-1">
          <mxGeometry width="50" height="50" relative="1" as="geometry">
            <mxPoint x="220" y="620" as="sourcePoint" />
            <mxPoint x="320" y="300" as="targetPoint" />
          </mxGeometry>
        </mxCell>
        <mxCell id="86hexkFTFtTpV62cVOlB-4" value="" style="endArrow=none;dashed=1;html=1;dashPattern=1 3;strokeWidth=2;rounded=0;" edge="1" parent="1" source="86hexkFTFtTpV62cVOlB-5" target="86hexkFTFtTpV62cVOlB-2">
          <mxGeometry width="50" height="50" relative="1" as="geometry">
            <mxPoint x="489.17" y="620" as="sourcePoint" />
            <mxPoint x="489.17" y="220" as="targetPoint" />
          </mxGeometry>
        </mxCell>
        <mxCell id="86hexkFTFtTpV62cVOlB-6" value="" style="endArrow=none;dashed=1;html=1;dashPattern=1 3;strokeWidth=2;rounded=0;" edge="1" parent="1" target="86hexkFTFtTpV62cVOlB-5">
          <mxGeometry width="50" height="50" relative="1" as="geometry">
            <mxPoint x="489.17" y="620" as="sourcePoint" />
            <mxPoint x="490" y="220" as="targetPoint" />
          </mxGeometry>
        </mxCell>
        <mxCell id="86hexkFTFtTpV62cVOlB-5" value="" style="rounded=0;whiteSpace=wrap;html=1;" vertex="1" parent="1">
          <mxGeometry x="480" y="250" width="20" height="330" as="geometry" />
        </mxCell>
        <mxCell id="86hexkFTFtTpV62cVOlB-8" value="" style="rounded=0;whiteSpace=wrap;html=1;" vertex="1" parent="1">
          <mxGeometry x="210" y="252" width="20" height="330" as="geometry" />
        </mxCell>
        <mxCell id="86hexkFTFtTpV62cVOlB-9" value="" style="endArrow=classic;html=1;rounded=0;exitX=1.147;exitY=0.101;exitDx=0;exitDy=0;exitPerimeter=0;entryX=1.006;entryY=0.206;entryDx=0;entryDy=0;entryPerimeter=0;" edge="1" parent="1" source="86hexkFTFtTpV62cVOlB-8" target="86hexkFTFtTpV62cVOlB-8">
          <mxGeometry width="50" height="50" relative="1" as="geometry">
            <mxPoint x="250" y="490" as="sourcePoint" />
            <mxPoint x="300" y="440" as="targetPoint" />
            <Array as="points">
              <mxPoint x="410" y="300" />
            </Array>
          </mxGeometry>
        </mxCell>
        <mxCell id="86hexkFTFtTpV62cVOlB-10" value="detectLowStockItems()" style="text;html=1;align=center;verticalAlign=middle;resizable=0;points=[];autosize=1;strokeColor=none;fillColor=none;" vertex="1" parent="1">
          <mxGeometry x="240" y="260" width="150" height="30" as="geometry" />
        </mxCell>
        <mxCell id="86hexkFTFtTpV62cVOlB-12" value="Loop [For each InventoryItem in items]" style="text;html=1;align=center;verticalAlign=middle;resizable=0;points=[];autosize=1;strokeColor=none;fillColor=none;" vertex="1" parent="1">
          <mxGeometry x="230" y="350" width="230" height="30" as="geometry" />
        </mxCell>
        <mxCell id="86hexkFTFtTpV62cVOlB-14" value="" style="endArrow=classic;html=1;rounded=0;exitX=1.1;exitY=0.472;exitDx=0;exitDy=0;exitPerimeter=0;entryX=-0.01;entryY=0.476;entryDx=0;entryDy=0;entryPerimeter=0;" edge="1" parent="1" source="86hexkFTFtTpV62cVOlB-8" target="86hexkFTFtTpV62cVOlB-5">
          <mxGeometry width="50" height="50" relative="1" as="geometry">
            <mxPoint x="250" y="490" as="sourcePoint" />
            <mxPoint x="480" y="405" as="targetPoint" />
          </mxGeometry>
        </mxCell>
        <mxCell id="86hexkFTFtTpV62cVOlB-15" value="isBelowThreshold()" style="text;html=1;align=center;verticalAlign=middle;resizable=0;points=[];autosize=1;strokeColor=none;fillColor=none;" vertex="1" parent="1">
          <mxGeometry x="250" y="380" width="130" height="30" as="geometry" />
        </mxCell>
        <mxCell id="86hexkFTFtTpV62cVOlB-20" value="return true/false" style="text;html=1;align=center;verticalAlign=middle;resizable=0;points=[];autosize=1;strokeColor=none;fillColor=none;" vertex="1" parent="1">
          <mxGeometry x="260" y="410" width="110" height="30" as="geometry" />
        </mxCell>
        <mxCell id="86hexkFTFtTpV62cVOlB-21" value="" style="rounded=0;whiteSpace=wrap;html=1;" vertex="1" parent="1">
          <mxGeometry x="230" y="450" width="240" height="50" as="geometry" />
        </mxCell>
        <mxCell id="86hexkFTFtTpV62cVOlB-24" value="" style="endArrow=classic;html=1;rounded=0;entryX=1;entryY=0.5;entryDx=0;entryDy=0;exitX=0;exitY=0.5;exitDx=0;exitDy=0;dashed=1;" edge="1" parent="1" source="86hexkFTFtTpV62cVOlB-5" target="86hexkFTFtTpV62cVOlB-8">
          <mxGeometry width="50" height="50" relative="1" as="geometry">
            <mxPoint x="380" y="480" as="sourcePoint" />
            <mxPoint x="430" y="430" as="targetPoint" />
          </mxGeometry>
        </mxCell>
        <mxCell id="86hexkFTFtTpV62cVOlB-25" value="" style="endArrow=classic;html=1;rounded=0;exitX=0.01;exitY=0.881;exitDx=0;exitDy=0;exitPerimeter=0;entryX=0;entryY=0.75;entryDx=0;entryDy=0;" edge="1" parent="1" source="86hexkFTFtTpV62cVOlB-21" target="86hexkFTFtTpV62cVOlB-21">
          <mxGeometry width="50" height="50" relative="1" as="geometry">
            <mxPoint x="232.75999999999988" y="472.69999999999993" as="sourcePoint" />
            <mxPoint x="430" y="430" as="targetPoint" />
            <Array as="points">
              <mxPoint x="340" y="483" />
            </Array>
          </mxGeometry>
        </mxCell>
        <mxCell id="86hexkFTFtTpV62cVOlB-26" value="&lt;font style=&quot;font-size: 10px;&quot;&gt;add to result list if true&amp;nbsp;&lt;/font&gt;" style="text;html=1;align=center;verticalAlign=middle;resizable=0;points=[];autosize=1;strokeColor=none;fillColor=none;" vertex="1" parent="1">
          <mxGeometry x="235" y="460" width="120" height="30" as="geometry" />
        </mxCell>
        <mxCell id="86hexkFTFtTpV62cVOlB-29" value="&lt;font style=&quot;font-size: 9px;&quot;&gt;alt [isBelowThreshold() == true&lt;/font&gt;" style="text;html=1;align=center;verticalAlign=middle;resizable=0;points=[];autosize=1;strokeColor=none;fillColor=none;" vertex="1" parent="1">
          <mxGeometry x="220" y="440" width="150" height="30" as="geometry" />
        </mxCell>
        <mxCell id="86hexkFTFtTpV62cVOlB-30" value="" style="endArrow=classic;html=1;rounded=0;entryX=1.021;entryY=0.94;entryDx=0;entryDy=0;entryPerimeter=0;" edge="1" parent="1" target="86hexkFTFtTpV62cVOlB-8">
          <mxGeometry width="50" height="50" relative="1" as="geometry">
            <mxPoint x="230" y="550" as="sourcePoint" />
            <mxPoint x="540" y="430" as="targetPoint" />
            <Array as="points">
              <mxPoint x="400" y="540" />
            </Array>
          </mxGeometry>
        </mxCell>
        <mxCell id="86hexkFTFtTpV62cVOlB-31" value="return lowStockItems" style="text;html=1;align=center;verticalAlign=middle;resizable=0;points=[];autosize=1;strokeColor=none;fillColor=none;" vertex="1" parent="1">
          <mxGeometry x="220" y="518" width="140" height="30" as="geometry" />
        </mxCell>
      </root>
    </mxGraphModel>
  </diagram>
</mxfile>
